<svg width="451" height="263" viewBox="0 0 451 263" fill="none" xmlns="http://www.w3.org/2000/svg">
<path d="M2.06383 29.5439C2.06383 29.5439 8.81379 27.5681 10.4854 25.5756C12.157 23.583 20.1206 19.6548 21.2372 21.8647C22.3538 24.0745 34.4863 30.858 26.8203 32.914C19.1543 34.9701 8.65995 36.3507 6.28962 35.6353C3.91929 34.9198 2.06383 29.5439 2.06383 29.5439Z" fill="#A8A8A8"/>
<path opacity="0.2" d="M26.7458 32.0632C19.0798 34.1192 8.58544 35.4999 6.2151 34.7844C4.40996 34.2396 2.9045 30.9939 2.28868 29.4761C2.14637 29.5196 2.06383 29.5439 2.06383 29.5439C2.06383 29.5439 3.91928 34.9198 6.28962 35.6353C8.65996 36.3507 19.1543 34.97 26.8203 32.914C29.0332 32.3205 29.5944 31.3327 29.249 30.1751C29.1242 30.9611 28.3929 31.6214 26.7458 32.0632Z" fill="black"/>
<path d="M439 0.954224H12.3217C5.69431 0.954224 0.321732 6.32681 0.321732 12.9542V250.079C0.321732 256.707 5.69431 262.079 12.3217 262.079H439C445.627 262.079 451 256.707 451 250.079V12.9542C451 6.32681 445.627 0.954224 439 0.954224Z" fill="#F5EAE3"/>
<path opacity="0.3" d="M258.092 80.2143H10.9457V209.659H258.092V80.2143Z" fill="#32757B"/>
<path d="M376.23 74.5713H277.103V80.0549H376.23V74.5713Z" fill="#3F3D56"/>
<path d="M421.365 84.6949H277.103V90.1786H421.365V84.6949Z" fill="#3F3D56"/>
<path d="M376.23 109.16H277.103V114.644H376.23V109.16Z" fill="#3F3D56"/>
<path d="M376.23 149.655H277.103V155.139H376.23V149.655Z" fill="#3F3D56"/>
<path d="M421.365 119.284H277.103V124.768H421.365V119.284Z" fill="#3F3D56"/>
<path d="M421.365 129.408H277.103V134.891H421.365V129.408Z" fill="#3F3D56"/>
<path d="M421.365 139.531H277.103V145.015H421.365V139.531Z" fill="#3F3D56"/>
<path d="M328.987 174.12H277.103V188.462H328.987V174.12Z" fill="#32757B"/>
<path d="M247.468 66.7946H0.321732V196.239H247.468V66.7946Z" fill="#3F3D56"/>
<path d="M128.493 162.069C143.939 162.069 156.46 149.525 156.46 134.051C156.46 118.577 143.939 106.032 128.493 106.032C113.047 106.032 100.525 118.577 100.525 134.051C100.525 149.525 113.047 162.069 128.493 162.069Z" fill="white"/>
<path d="M128.493 101.257C121.882 101.257 115.42 103.218 109.923 106.89C104.427 110.563 100.142 115.783 97.6126 121.891C95.0828 127.998 94.4209 134.719 95.7106 141.203C97.0003 147.686 100.184 153.642 104.858 158.317C109.533 162.991 115.488 166.174 121.972 167.464C128.456 168.754 135.176 168.092 141.284 165.562C147.391 163.032 152.612 158.748 156.284 153.252C159.957 147.755 161.917 141.293 161.917 134.682C161.891 125.825 158.362 117.339 152.099 111.076C145.836 104.813 137.35 101.283 128.493 101.257ZM121.631 152.503L104.501 135.373L109.306 130.568L121.647 142.909L147.696 116.861L152.501 121.666L121.631 152.503Z" fill="#32757B"/>
</svg>
