<svg width="106" height="106" viewBox="0 0 106 106" fill="none" xmlns="http://www.w3.org/2000/svg">
<path d="M0 0H106V106H0V0Z" fill="#F0F0F0"/>
<path d="M31.0773 77.7333H21.2L43.3939 16.0604H54.1444L76.338 77.7333H66.4609L60.8295 61.4114H36.7385L31.0773 77.7333ZM39.449 53.5819H58.1194L49.025 27.2627H48.5431L39.449 53.5819Z" fill="#219653"/>
<path d="M65.7242 95.9523C60.2034 95.9523 55.8472 94.9181 52.6548 92.8504C49.4829 90.7827 47.2848 88.3535 46.0602 85.5629L53.7992 82.3709C54.3413 83.2139 55.0642 84.1276 55.9673 85.1113C56.8909 86.095 58.1357 86.938 59.7017 87.6408C61.2874 88.3436 63.3251 88.6948 65.8147 88.6948C69.2275 88.6948 72.0482 87.8715 74.2767 86.2254C76.5048 84.5792 77.6192 81.9695 77.6192 78.3959V69.3014H77.0472C76.5048 70.2854 75.732 71.3794 74.7282 72.5839C73.7244 73.7884 72.3291 74.8325 70.5423 75.7158C68.7756 76.5992 66.4772 77.0408 63.6463 77.0408C60.0126 77.0408 56.7305 76.1875 53.7992 74.4813C50.8881 72.7545 48.5794 70.2151 46.8732 66.8623C45.1666 63.4898 44.3133 59.3441 44.3133 54.4254C44.3133 49.507 45.1465 45.291 46.8128 41.7778C48.4992 38.2646 50.8079 35.5743 53.7392 33.7072C56.6701 31.8201 59.9925 30.8766 63.7067 30.8766C66.5775 30.8766 68.8961 31.3584 70.6628 32.322C72.4496 33.2656 73.835 34.3697 74.8187 35.6344C75.8225 36.8993 76.5854 38.0134 77.1072 38.9773H77.7697V31.4788H86.5932V78.7573C86.5932 82.692 85.6696 85.9243 83.8227 88.4538C81.9754 91.0035 79.4763 92.8906 76.3242 94.1153C73.1923 95.34 69.659 95.9523 65.7242 95.9523ZM65.6338 69.5728C69.5286 69.5728 72.51 68.2276 74.5777 65.5373C76.6656 62.8273 77.7097 59.083 77.7097 54.3049C77.7097 49.6275 76.6754 45.833 74.6077 42.9219C72.5602 39.991 69.5689 38.5254 65.6338 38.5254C62.9237 38.5254 60.6652 39.2281 58.8583 40.6334C57.0517 42.0188 55.6864 43.9056 54.7628 46.2948C53.8597 48.6636 53.4077 51.3337 53.4077 54.3049C53.4077 58.842 54.4416 62.5259 56.5097 65.3568C58.5774 68.1672 61.6189 69.5728 65.6338 69.5728Z" fill="#40C390"/>
</svg>
